<svg id="Capa_1" data-name="Capa 1" xmlns="http://www.w3.org/2000/svg" viewBox="0 0 150 57.78"><defs><style>.cls-1{fill:#096;}.cls-2{fill:#f5fefc;}</style></defs><rect class="cls-1" width="150" height="57.78" rx="28.89"/><path class="cls-2" d="M46.62,28.38h-9v6.1H48.18v3.76H32.93V15.49H48.15v3.8H37.62v5.42h9Z"/><path class="cls-2" d="M54.94,21.33l.14,2A5.91,5.91,0,0,1,59.94,21a4.91,4.91,0,0,1,4,1.58,7.34,7.34,0,0,1,1.35,4.72V38.24H60.77V27.43a3,3,0,0,0-.62-2.09,2.82,2.82,0,0,0-2.08-.65,3.11,3.11,0,0,0-2.86,1.63V38.24H50.69V21.33Z"/><path class="cls-2" d="M74.33,32.73l3.14-11.4h4.72l-5.7,16.91H72.18L66.47,21.33h4.72Z"/><path class="cls-2" d="M83.9,17a2.23,2.23,0,0,1,.68-1.67,2.91,2.91,0,0,1,3.69,0A2.2,2.2,0,0,1,89,17a2.23,2.23,0,0,1-.69,1.69,2.93,2.93,0,0,1-3.68,0A2.23,2.23,0,0,1,83.9,17Zm4.8,21.28H84.16V21.33H88.7Z"/><path class="cls-2" d="M101.93,38.24a4.9,4.9,0,0,1-.45-1.51,5.49,5.49,0,0,1-4.27,1.82,6,6,0,0,1-4.11-1.43,4.64,4.64,0,0,1-1.64-3.63,4.76,4.76,0,0,1,2-4.12,9.77,9.77,0,0,1,5.75-1.46h2.08v-1a2.78,2.78,0,0,0-.6-1.87,2.36,2.36,0,0,0-1.9-.7,2.71,2.71,0,0,0-1.79.54,1.88,1.88,0,0,0-.65,1.5H91.84a4.52,4.52,0,0,1,.91-2.72,6,6,0,0,1,2.56-2A9.38,9.38,0,0,1,99,21a7.43,7.43,0,0,1,5,1.57A5.51,5.51,0,0,1,105.82,27v7.32A8.08,8.08,0,0,0,106.5,38v.26ZM98.2,35.1a4,4,0,0,0,1.84-.44,3,3,0,0,0,1.25-1.2V30.55H99.6c-2.26,0-3.46.78-3.6,2.35l0,.26a1.81,1.81,0,0,0,.59,1.39A2.3,2.3,0,0,0,98.2,35.1Z"/><path class="cls-2" d="M118.66,25.57a12.94,12.94,0,0,0-1.62-.13q-2.57,0-3.36,1.74V38.24h-4.52V21.33h4.27l.12,2A4.19,4.19,0,0,1,117.32,21a4.51,4.51,0,0,1,1.4.21Z"/></svg>