<?xml version="1.0" encoding="utf-8"?>
<!-- Generator: Adobe Illustrator 25.2.3, SVG Export Plug-In . SVG Version: 6.00 Build 0)  -->
<svg version="1.1" id="Capa_1" xmlns="http://www.w3.org/2000/svg" xmlns:xlink="http://www.w3.org/1999/xlink" x="0px" y="0px"
	 viewBox="0 0 2522.9 765" style="enable-background:new 0 0 2522.9 765;" xml:space="preserve">
<style type="text/css">
	.st0{fill:#313D3B;}
	.st1{fill:url(#SVGID_1_);}
	.st2{fill:url(#SVGID_2_);}
	.st3{fill:url(#SVGID_3_);}
</style>
<g id="IsoLogoSensifyColor">
	<g id="Destacado">
		<path class="st0" d="M672,521.2c4.3,33.2,23.6,53.5,60.8,53.5c37.5,0,49.4-15.7,49.4-38.1c0-29.5-19.5-42.8-75.2-58.1
			c-101.6-27.5-132.1-66.2-132.1-123.4c0-82.3,67-124.7,152.4-124.7c101,0,153.4,48.6,158,124.1H778.8c-3.3-25.5-15-46.6-51.1-46.6
			c-27.7,0-42.7,12.8-42.7,34.6c0,25.3,18.2,32.6,72.7,48.1c107.7,30.6,137.6,71.5,137.6,133.4c0,77.7-57.8,129-165.9,129
			c-100.9,0-160.4-50.6-164.9-132L672,521.2z"/>
		<path class="st0" d="M1031.4,512.1c-0.2,35.5,11.3,65.5,45.6,65.5c27.5,0,35.9-16.3,40.1-30.5h104.7
			c-12.6,47.3-47,105.1-147.6,105.1c-112.1,0-153-73.6-153-162.3c0-79.2,40-163.2,156.1-163.2c113.9,0,148.2,77.9,148.2,159.4
			c0,3.1-0.4,22.6-0.8,26L1031.4,512.1z M1117.5,451.7c-0.8-29.5-9.5-53.8-41.8-53.8c-33.5,0-42.8,26-43.6,53.8H1117.5z"/>
		<path class="st0" d="M1253.1,431.1c0-64.6-0.4-83.7-1-97.8h106.8c1.2,5.6,2.6,23.5,2.8,35c13.6-21.8,41.7-41.6,85.3-41.6
			c64.5,0,96.5,43.5,96.5,111.5v207.9h-109.2V456.2c0-29.7-6.6-47.4-33.9-47.4c-25.1,0-38.1,13.5-38.1,57V646h-109.2V431.1z"/>
		<path class="st0" d="M1666.9,547.1c2.6,22.3,18.2,34.8,43.2,34.8c22.3,0,34.3-7.9,34.3-23.3c0-16.4-15.8-22.1-54.6-32.5
			c-93.5-23.4-113.6-53.7-113.6-99.9c0-48.2,34.5-99.6,130.3-99.6c95.6,0,130.7,48.4,133.7,98.3h-98.6c-1.6-15.5-10.7-31-37.1-31
			c-17.6,0-27.7,7.1-27.7,20.9c0,13,11.1,18.7,56.7,30.1c84,21.2,114,51.1,114,104c0,64-51.5,103.2-139,103.2
			c-89.2,0-135.6-40-141.1-105.1L1666.9,547.1z"/>
		<path class="st0" d="M1876.7,215.5h109.2v79h-109.2V215.5z M1876.7,333.2h109.2V646h-109.2V333.2z"/>
		<path class="st0" d="M2045.6,646V410h-38.4v-76.8h38.4v-18.9c0-67.7,32.9-102.9,104.5-102.9c20.2,0,36.2,2.6,44.4,5v73.1
			c-5.7-1-11.5-1.6-17.3-1.6c-17.6,0-22.7,11.2-22.7,27.2v18h45.5V410h-45.5v236H2045.6z"/>
		<path class="st0" d="M2321.1,333.2c24.4,100.8,41.6,182,45.7,223.4h2c7.5-43.6,28.6-145,45.9-223.4h108.1L2429,634.6
			c-34.7,112.9-67.6,130.4-142.1,130.4c-14.9-0.2-29.8-1.3-44.6-3.4v-79.7c8.9,1,17.9,1.6,26.9,1.6c22,0,34.8-10.4,40-27.6
			l-105-322.6L2321.1,333.2z"/>
		
			<linearGradient id="SVGID_1_" gradientUnits="userSpaceOnUse" x1="65.2511" y1="157.7" x2="529.881" y2="689.6299" gradientTransform="matrix(1 0 0 -1 0 762.8242)">
			<stop  offset="0" style="stop-color:#32245E"/>
			<stop  offset="0.31" style="stop-color:#0F7572"/>
			<stop  offset="0.45" style="stop-color:#01967A"/>
			<stop  offset="0.52" style="stop-color:#109C82"/>
			<stop  offset="0.65" style="stop-color:#39AC98"/>
			<stop  offset="0.83" style="stop-color:#7AC6BA"/>
			<stop  offset="0.84" style="stop-color:#7FC8BD"/>
			<stop  offset="1" style="stop-color:#7FC8BD"/>
		</linearGradient>
		<path class="st1" d="M148.4,434.4c-0.4-0.7-0.7-1.4-1.1-2.2l0,0C127.5,394,80.4,379,42.1,398.9C3.9,418.7-11.1,465.8,8.8,504
			c0.8,1.6,1.7,3.2,2.7,4.7l72.7,145.7c16.9,39.6,62.8,58,102.4,41.1c39.6-16.9,58-62.8,41.1-102.4c-1.2-2.8-2.5-5.5-4-8.1
			L148.4,434.4z"/>
		
			<linearGradient id="SVGID_2_" gradientUnits="userSpaceOnUse" x1="25.1257" y1="192.7516" x2="489.7557" y2="724.6816" gradientTransform="matrix(1 0 0 -1 0 762.8242)">
			<stop  offset="0" style="stop-color:#32245E"/>
			<stop  offset="0.31" style="stop-color:#0F7572"/>
			<stop  offset="0.45" style="stop-color:#01967A"/>
			<stop  offset="0.52" style="stop-color:#109C82"/>
			<stop  offset="0.65" style="stop-color:#39AC98"/>
			<stop  offset="0.83" style="stop-color:#7AC6BA"/>
			<stop  offset="0.84" style="stop-color:#7FC8BD"/>
			<stop  offset="1" style="stop-color:#7FC8BD"/>
		</linearGradient>
		<path class="st2" d="M234,78.1c0,11.8,2.6,23.4,7.8,34l0,0c2,4.1,4.3,8,7,11.7l110.5,184.3c19.9,38.2,67,53,105.2,33.1
			c38.2-19.9,53-67,33.1-105.2l0,0l0,0c-1.1-2.1-2.3-4.1-3.6-6L382.6,45C364.4,6,318-10.9,279,7.3C251.5,20.2,233.9,47.7,234,78.1
			L234,78.1z"/>
		
			<linearGradient id="SVGID_3_" gradientUnits="userSpaceOnUse" x1="65.7264" y1="157.2916" x2="530.3564" y2="689.2216" gradientTransform="matrix(1 0 0 -1 0 762.8242)">
			<stop  offset="0" style="stop-color:#32245E"/>
			<stop  offset="0.31" style="stop-color:#0F7572"/>
			<stop  offset="0.45" style="stop-color:#01967A"/>
			<stop  offset="0.52" style="stop-color:#109C82"/>
			<stop  offset="0.65" style="stop-color:#39AC98"/>
			<stop  offset="0.83" style="stop-color:#7AC6BA"/>
			<stop  offset="0.84" style="stop-color:#7FC8BD"/>
			<stop  offset="1" style="stop-color:#7FC8BD"/>
		</linearGradient>
		<path class="st3" d="M456.7,583.9L186.6,120.6l0,0C167,82.5,120.2,67.4,82,87s-53.2,66.4-33.7,104.5c1.3,2.6,2.8,5.2,4.5,7.6
			l270.1,465.6l0,0c13.1,21.5,35.8,35.5,60.9,37.4h11.9c43-3.3,75.2-40.9,71.9-83.9C466.7,606,462.9,594.3,456.7,583.9L456.7,583.9z
			"/>
	</g>
</g>
</svg>
