<svg id="Capa_1" data-name="Capa 1" xmlns="http://www.w3.org/2000/svg" viewBox="0 0 260 57.78"><defs><style>.cls-1{fill:#096;}.cls-2{fill:#f5fefc;}</style></defs><rect class="cls-1" width="260" height="57.78" rx="28.89"/><path class="cls-2" d="M59.31,30.66a8,8,0,0,1-2.71,5.78,9.51,9.51,0,0,1-6.45,2.11,8.57,8.57,0,0,1-6.88-2.94c-1.67-2-2.51-4.66-2.51-8.09V26.13a13.65,13.65,0,0,1,1.16-5.78,8.65,8.65,0,0,1,3.3-3.84,9.3,9.3,0,0,1,5-1.33,9.25,9.25,0,0,1,6.34,2.11,8.65,8.65,0,0,1,2.78,5.92H54.65A4.77,4.77,0,0,0,53.43,20a4.57,4.57,0,0,0-3.21-1,4,4,0,0,0-3.51,1.68,9.38,9.38,0,0,0-1.2,5.21v1.72A10,10,0,0,0,46.63,33a3.89,3.89,0,0,0,3.52,1.7,4.66,4.66,0,0,0,3.25-1,4.46,4.46,0,0,0,1.22-3.07Z"/><path class="cls-2" d="M61.36,29.63a10.07,10.07,0,0,1,1-4.48,7.11,7.11,0,0,1,2.79-3A8.17,8.17,0,0,1,69.34,21a7.71,7.71,0,0,1,5.59,2.1,8.41,8.41,0,0,1,2.41,5.68l0,1.16A8.83,8.83,0,0,1,75.2,36.2a7.54,7.54,0,0,1-5.83,2.35,7.57,7.57,0,0,1-5.83-2.34,9,9,0,0,1-2.18-6.38Zm4.51.32a6.28,6.28,0,0,0,.91,3.69,3.25,3.25,0,0,0,5.15,0,6.86,6.86,0,0,0,.93-4A6.23,6.23,0,0,0,71.93,26a3,3,0,0,0-2.59-1.3A2.94,2.94,0,0,0,66.78,26,7,7,0,0,0,65.87,30Z"/><path class="cls-2" d="M84.24,21.33l.14,2A5.91,5.91,0,0,1,89.24,21a4.92,4.92,0,0,1,4,1.58,7.38,7.38,0,0,1,1.34,4.72V38.24H90.07V27.43a2.92,2.92,0,0,0-.63-2.09,2.82,2.82,0,0,0-2.08-.65,3.12,3.12,0,0,0-2.86,1.63V38.24H80V21.33Z"/><path class="cls-2" d="M103.25,17.18v4.15h2.89v3.32h-2.89v8.43a2,2,0,0,0,.36,1.35,1.81,1.81,0,0,0,1.37.4,6.61,6.61,0,0,0,1.33-.11v3.43a9.25,9.25,0,0,1-2.73.4c-3.17,0-4.78-1.6-4.85-4.79V24.65H96.27V21.33h2.46V17.18Z"/><path class="cls-2" d="M118.45,38.24a5.15,5.15,0,0,1-.46-1.52,5.44,5.44,0,0,1-4.26,1.83,6,6,0,0,1-4.12-1.43A4.63,4.63,0,0,1,108,33.49a4.75,4.75,0,0,1,2-4.12,9.83,9.83,0,0,1,5.76-1.46h2.08v-1a2.74,2.74,0,0,0-.61-1.87,2.35,2.35,0,0,0-1.89-.7,2.69,2.69,0,0,0-1.79.54,1.85,1.85,0,0,0-.65,1.5h-4.52a4.52,4.52,0,0,1,.91-2.72,6.05,6.05,0,0,1,2.56-2,9.42,9.42,0,0,1,3.72-.71,7.36,7.36,0,0,1,5,1.57A5.52,5.52,0,0,1,122.34,27v7.32A8,8,0,0,0,123,38v.27Zm-3.74-3.14a3.89,3.89,0,0,0,1.85-.45,2.88,2.88,0,0,0,1.25-1.19V30.55h-1.69c-2.26,0-3.47.78-3.61,2.35l0,.26a1.79,1.79,0,0,0,.6,1.39A2.26,2.26,0,0,0,114.71,35.1Z"/><path class="cls-2" d="M132.57,34.91a3,3,0,0,0,2-.69,2.38,2.38,0,0,0,.81-1.82h4.23a5.8,5.8,0,0,1-.93,3.14,6.13,6.13,0,0,1-2.53,2.22,7.86,7.86,0,0,1-3.54.79,7.38,7.38,0,0,1-5.72-2.3,9.16,9.16,0,0,1-2.09-6.37v-.3a9,9,0,0,1,2.08-6.23,7.26,7.26,0,0,1,5.7-2.33,7.09,7.09,0,0,1,5.09,1.81,6.39,6.39,0,0,1,1.94,4.8h-4.23a3.09,3.09,0,0,0-.81-2.14,3,3,0,0,0-4.45.32,6.64,6.64,0,0,0-.8,3.73V30a6.76,6.76,0,0,0,.79,3.76A2.76,2.76,0,0,0,132.57,34.91Z"/><path class="cls-2" d="M147.79,17.18v4.15h2.89v3.32h-2.89v8.43a2,2,0,0,0,.36,1.35,1.82,1.82,0,0,0,1.38.4,6.51,6.51,0,0,0,1.32-.11v3.43a9.25,9.25,0,0,1-2.73.4q-4.76,0-4.84-4.79V24.65h-2.47V21.33h2.47V17.18Z"/><path class="cls-2" d="M163,38.24a4.88,4.88,0,0,1-.45-1.52,5.48,5.48,0,0,1-4.27,1.83,6,6,0,0,1-4.12-1.43,4.63,4.63,0,0,1-1.63-3.63,4.75,4.75,0,0,1,2-4.12,9.83,9.83,0,0,1,5.76-1.46h2.08v-1a2.78,2.78,0,0,0-.6-1.87,2.38,2.38,0,0,0-1.9-.7,2.71,2.71,0,0,0-1.79.54,1.88,1.88,0,0,0-.65,1.5h-4.52a4.58,4.58,0,0,1,.91-2.72,6.05,6.05,0,0,1,2.56-2,9.45,9.45,0,0,1,3.72-.71,7.36,7.36,0,0,1,5,1.57A5.49,5.49,0,0,1,166.88,27v7.32a8,8,0,0,0,.67,3.64v.27Zm-3.74-3.14a3.86,3.86,0,0,0,1.85-.45,2.88,2.88,0,0,0,1.25-1.19V30.55h-1.69c-2.26,0-3.46.78-3.61,2.35v.26a1.79,1.79,0,0,0,.59,1.39A2.27,2.27,0,0,0,159.25,35.1Z"/><path class="cls-2" d="M174.42,21.33l.14,2A5.91,5.91,0,0,1,179.42,21a4.91,4.91,0,0,1,4,1.58,7.32,7.32,0,0,1,1.35,4.72V38.24h-4.52V27.43a3,3,0,0,0-.62-2.09,2.82,2.82,0,0,0-2.08-.65,3.11,3.11,0,0,0-2.86,1.63V38.24h-4.52V21.33Z"/><path class="cls-2" d="M187.3,29.63a9.94,9.94,0,0,1,1-4.48,7,7,0,0,1,2.79-3A8.11,8.11,0,0,1,195.29,21a7.67,7.67,0,0,1,5.58,2.1,8.42,8.42,0,0,1,2.42,5.68l0,1.16a8.84,8.84,0,0,1-2.18,6.24,8.42,8.42,0,0,1-11.66,0,9,9,0,0,1-2.18-6.38Zm4.52.32a6.36,6.36,0,0,0,.9,3.69,3.26,3.26,0,0,0,5.16,0,7,7,0,0,0,.92-4,6.31,6.31,0,0,0-.92-3.66,3,3,0,0,0-2.59-1.3A3,3,0,0,0,192.72,26,7.09,7.09,0,0,0,191.82,30Z"/><path class="cls-2" d="M215,33.57a1.46,1.46,0,0,0-.82-1.31,9.7,9.7,0,0,0-2.63-.85q-6-1.26-6-5.12a4.65,4.65,0,0,1,1.86-3.76A7.52,7.52,0,0,1,212.29,21a8.08,8.08,0,0,1,5.14,1.52,4.76,4.76,0,0,1,1.93,3.93h-4.51a2.18,2.18,0,0,0-.63-1.6,2.63,2.63,0,0,0-1.95-.63,2.69,2.69,0,0,0-1.77.52,1.63,1.63,0,0,0-.62,1.31,1.4,1.4,0,0,0,.71,1.21,7.31,7.31,0,0,0,2.4.8,19.41,19.41,0,0,1,2.84.75c2.39.88,3.58,2.39,3.58,4.55a4.41,4.41,0,0,1-2,3.74,8.55,8.55,0,0,1-5.13,1.43,8.85,8.85,0,0,1-3.77-.76,6.31,6.31,0,0,1-2.59-2.07,4.86,4.86,0,0,1-.94-2.85h4.29a2.33,2.33,0,0,0,.89,1.84,3.5,3.5,0,0,0,2.21.64,3.29,3.29,0,0,0,2-.49A1.54,1.54,0,0,0,215,33.57Z"/></svg>