<?xml version="1.0" encoding="utf-8"?>
<!-- Generator: Adobe Illustrator 25.3.1, SVG Export Plug-In . SVG Version: 6.00 Build 0)  -->
<svg version="1.1" id="Capa_1" xmlns="http://www.w3.org/2000/svg" xmlns:xlink="http://www.w3.org/1999/xlink" x="0px" y="0px"
	 viewBox="0 0 50 50" style="enable-background:new 0 0 50 50;" xml:space="preserve">
<style type="text/css">
	.st0{fill:none;}
	.st1{fill:#F5FEFC;}
</style>
<path class="st0" d="M-95-95h240v240H-95V-95z"/>
<path class="st1" d="M25,17.5c-4.1,0-7.5,3.4-7.5,7.5s3.4,7.5,7.5,7.5s7.5-3.4,7.5-7.5S29.1,17.5,25,17.5z M25,12.5
	c6.9,0,12.5,5.6,12.5,12.5S31.9,37.5,25,37.5S12.5,31.9,12.5,25S18.1,12.5,25,12.5z M41.2,11.9c0,1.7-1.4,3.1-3.1,3.1
	c-1.7,0-3.1-1.4-3.1-3.1s1.4-3.1,3.1-3.1l0,0C39.8,8.8,41.2,10.1,41.2,11.9L41.2,11.9z M25,5c-6.2,0-7.2,0-10.1,0.2
	c-1.5,0-3.1,0.3-4.5,0.8c-2,0.8-3.7,2.4-4.4,4.5c-0.5,1.4-0.8,3-0.8,4.5C5,17.7,5,18.6,5,25c0,6.2,0,7.2,0.2,10.1
	c0,1.5,0.3,3.1,0.8,4.5c0.4,1,1,1.9,1.8,2.7c0.7,0.8,1.7,1.4,2.7,1.7c1.4,0.5,3,0.8,4.5,0.8C17.7,45,18.6,45,25,45
	c6.2,0,7.2,0,10.1-0.1c1.5,0,3.1-0.3,4.5-0.8c2-0.8,3.6-2.4,4.4-4.5c0.5-1.4,0.8-3,0.8-4.5C45,32.3,45,31.4,45,25
	c0-6.2,0-7.2-0.1-10.1c0-1.5-0.3-3.1-0.8-4.5c-0.4-1-1-1.9-1.8-2.7C41.5,7,40.6,6.4,39.6,6c-1.4-0.5-3-0.8-4.5-0.8
	C32.3,5,31.4,5,25,5z M25,0c6.8,0,7.6,0,10.3,0.2c2.1,0,4.1,0.4,6.1,1.2c3.4,1.3,6,4,7.3,7.3c0.7,1.9,1.1,4,1.2,6.1
	C50,17.4,50,18.2,50,25s0,7.6-0.2,10.3c0,2.1-0.4,4.1-1.2,6.1c-1.3,3.4-3.9,6-7.3,7.3c-1.9,0.7-4,1.1-6.1,1.2C32.6,50,31.8,50,25,50
	s-7.6,0-10.3-0.2c-2.1,0-4.1-0.4-6.1-1.2c-3.4-1.3-6-4-7.3-7.3c-0.7-1.9-1.1-4-1.2-6.1C0,32.6,0,31.8,0,25s0-7.6,0.2-10.3
	c0-2.1,0.4-4.1,1.2-6.1C1.9,7,2.9,5.4,4.2,4.2C5.4,2.9,7,1.9,8.6,1.3c1.9-0.7,4-1.1,6.1-1.2C17.4,0,18.2,0,25,0z"/>
</svg>
