<svg id="Capa_1" data-name="Capa 1" xmlns="http://www.w3.org/2000/svg" viewBox="0 0 50 50"><defs><style>.cls-1{fill:#f5fefc;}</style></defs><path class="cls-1" d="M42.6,42.61H35.19V31c0-2.77,0-6.33-3.86-6.33s-4.44,3-4.44,6.12V42.61H19.48V18.75h7.11V22h.1a7.8,7.8,0,0,1,7-3.85c7.5,0,8.89,4.94,8.89,11.36v13.1ZM11.12,15.49a4.3,4.3,0,0,1-4.3-4.29v0a4.3,4.3,0,1,1,4.3,4.31Zm3.71,27.12H7.41V18.75h7.42V42.61ZM46.31,0H3.69A3.64,3.64,0,0,0,0,3.6V46.4A3.64,3.64,0,0,0,3.69,50h42.6A3.66,3.66,0,0,0,50,46.4V3.6A3.66,3.66,0,0,0,46.29,0h0Z"/></svg>