<svg id="Capa_1" data-name="Capa 1" xmlns="http://www.w3.org/2000/svg" viewBox="0 0 1602.7 486.01"><defs><style>.cls-1{fill:#8d8e8e;}</style></defs><path class="cls-1" d="M1440.32,589.16H1236.21c-4.25,0-8.53.19-12.75-.23-8.88-.87-15.27-5.23-15.35-14.75s6.05-14,15.12-14.68c4.24-.3,8.5-.24,12.75-.24,139.11.07,278.22-.07,417.33.34,58.42.17,105.79,47.5,108,106.54,2.16,58.43-42.6,111.32-98.45,116.34-62.17,5.6-116.18-34.26-124.78-92.19a94.5,94.5,0,0,1-.64-12.72c-.13-10-.21-21.08,13.36-21.54,12.64-.42,15.7,10,16.67,20,3.11,32.38,18.46,56.35,48.38,69.54,33.33,14.69,63.93,8.23,90.32-17.4,25.73-25,30.1-55.19,18.26-87.13-12.44-33.57-39-51.07-74.5-51.53-69.84-.9-139.71-.26-209.57-.26Z" transform="translate(-158.65 -296.99)"/><path class="cls-1" d="M1347.7,490.15c37,0,74.08.11,111.12,0,43-.16,80.2-34,82.07-74.44,2.14-46.47-28.69-83.47-73.66-88.37-42-4.59-81,26.07-88.42,69.35-2,11.34.1,28.25-17.81,25.79-18.19-2.5-13.54-18.92-11.91-31,7.81-57.84,55.66-96.14,117.11-94.38,54.91,1.58,101.73,47.56,105.63,103.74,4.05,58.29-35.23,108.46-93,118.87-19.88,3.59-40,2.47-60,2.6-60.73.41-121.46.25-182.19.26a86.82,86.82,0,0,1-14.53-.72c-8.6-1.48-14.92-6.1-14.72-15.62.23-10.23,6.52-15.47,16.44-15.62,20.64-.33,41.29-.25,61.94-.28s41.29,0,61.94,0Z" transform="translate(-158.65 -296.99)"/><path class="cls-1" d="M1265.11,625.5c60.09,0,120.18-.36,180.26.16a56.3,56.3,0,0,1,54.48,45.22,57.62,57.62,0,0,1-31.64,63.56c-24.74,11.69-53.86,5-70.46-16.5a52.53,52.53,0,0,1-7.66-14.29c-2.73-7.67-.9-14.65,6.69-18.65,6.75-3.56,13.07-1.63,18.12,3.79,2.88,3.09,5,6.83,7.84,10,8.51,9.7,18.83,13,31.06,7.86,11.34-4.72,17.41-13.38,16.35-25.64-1.2-13.74-9.89-21.94-22.8-25.07-5.78-1.39-12.07-.83-18.13-.83Q1260.8,655,1092.36,655c-5.45,0-11,.4-16.32-.65-7.16-1.41-11.81-6.21-12.13-13.88-.33-8.09,5-12.39,11.91-13.87,5.85-1.25,12.07-.94,18.13-.94q85.58-.09,171.16,0Z" transform="translate(-158.65 -296.99)"/><path class="cls-1" d="M294.13,496.9c0,11.54.44,23.09-.1,34.6-1.73,37.32-28.22,63.17-65.68,64.52-36,1.3-65.36-22.8-68.33-59-2.18-26.54-1.22-53.38-.74-80.07.2-10.67,3.12-21,17.6-20.41,13.49.57,15.17,10.51,15.44,20.5.66,23.66.52,47.35.92,71,.39,23,12.57,37.39,32.38,38.74,17.17,1.16,33.26-13.44,34.88-35,1.82-24.16,1-48.52,1.31-72.79.13-10.65-.12-21.81,14.7-22.44,15.51-.66,17.27,10.53,17.55,22.11C294.38,471.4,294.13,484.15,294.13,496.9Z" transform="translate(-158.65 -296.99)"/><path class="cls-1" d="M1627.52,522.92c-10.91-.52-21.85-.66-32.72-1.67-9.8-.91-18.21-4.34-17.18-16.61.92-10.92,8.94-13.83,18-14,21.86-.44,43.73-.18,65.59-.56,13.63-.24,23.24-6.9,27.06-20.18,3.47-12.07-1.67-21.46-11.43-28.3-12.46-8.73-27.35-6.17-36.54,7.3-6.79,10-14,19.15-26,10.28-11.61-8.55-5.41-19.8.63-29.18,13.23-20.51,41.51-29.21,66.33-21,25.25,8.4,39.83,31.29,38,59.66-1.66,25.79-19.29,46.11-44.56,50.63A243.62,243.62,0,0,1,1627.52,522.92Z" transform="translate(-158.65 -296.99)"/><path class="cls-1" d="M318.58,535.43c0-14.57-.18-29.14.06-43.7.24-14.28,9.5-18.91,20.71-14,8.48,3.73,14,2.39,21.65-.75,29.34-12,58.28,5,60.71,36.37,1.59,20.51.81,41.23.4,61.84-.19,9.82-4.1,18.63-15.65,18.65-11.74,0-14.95-8.88-15.2-18.78-.41-16.38-.14-32.78-.52-49.16-.31-13.4-4.52-24.07-20.4-24.83-16.31-.77-21,10-21.67,23.3-.82,17-.54,34-.58,51,0,10.42-3.35,18-15.2,18.39-13,.45-14.41-8.29-14.34-18.26C318.64,562.13,318.57,548.78,318.58,535.43Z" transform="translate(-158.65 -296.99)"/><path class="cls-1" d="M736.13,596.46c-13.87.44-26.3-4-37.61-11.58-6.17-4.17-8.5-10.2-5.82-17.43,2.94-7.91,9.65-8.9,16.52-7.26,8.78,2.11,17.18,5.84,26,7.69,5.26,1.11,11.71.15,13.34-6.4,1.5-6-4.22-8.32-8.35-10.38-8.66-4.31-17.91-7.48-26.45-12-12-6.35-19.72-15.78-19.07-30.43.64-14.2,7.71-24,20.21-29.9,17.82-8.36,35.4-6.71,52.11,3.16,7.18,4.24,12.55,10.63,8.87,19.57-3.94,9.59-12.11,8.11-20.17,5.93-9.84-2.67-23.83-13.41-28.5.16-4.42,12.82,13.73,13.79,22.57,18,24.9,12,33.31,22.74,29.38,41.64C775.54,584.61,758.37,596.26,736.13,596.46Z" transform="translate(-158.65 -296.99)"/><path class="cls-1" d="M981.15,534.15c0-13.91-1.2-28,.33-41.7,1.63-14.72,11.85-20.54,24.48-13.57,7.81,4.31,12.56,3,19.62-.25,8.52-3.94,18.57-5.15,23,6.17,4.31,11-2.56,17.77-12.14,20.57-20,5.84-26.13,19.35-24.47,38.74.82,9.62.07,19.38.09,29.08,0,10.5-1.62,20-14.89,20.5-13.44.5-15.82-9.59-16.39-19.56-.77-13.29-.19-26.65-.19-40Z" transform="translate(-158.65 -296.99)"/><path class="cls-1" d="M958.81,534.55c0,14,.06,27.92,0,41.88-.06,9.64-3.75,16.69-14.34,17.59-11,.94-15.46-6.18-16.17-15.54-2.16-28.47-1.93-57-.36-85.49.58-10.38,5.7-17.29,17.37-16.48,11.33.78,13.42,8.86,13.56,18,.21,13.35.06,26.71.06,40.06Z" transform="translate(-158.65 -296.99)"/><path class="cls-1" d="M961.28,443.71c-1.71,11.17-7.11,17.92-17.75,18-11.18.13-16.25-7.53-16.54-17.55s6-15.28,16-15.5C953.79,428.45,959.45,434.3,961.28,443.71Z" transform="translate(-158.65 -296.99)"/><path class="cls-1" d="M549.82,564.63c-6.16-6.69-11.85-13.92-18.59-20-11.56-10.38-12.37-16.9,4-23.16,20-7.6,22.39-25.39,20.87-44-1.47-17.9-9.53-30.74-27.84-36.23-22-6.61-44.46-5.31-66.83-4.26-11.3.53-14.86,8.56-14.82,19.05q.18,59.16,0,118.32c0,11,2.92,19.24,16.11,19.21s16.05-8.74,16.23-19.41c.21-12.51,0-25,0-37.53l4.41-1.07c3.28,3.48,6.76,6.79,9.81,10.46,10.87,13,21.42,26.36,32.46,39.26,7.54,8.8,17.39,13,27,4.54S557,572.4,549.82,564.63Zm-54-58.4c-16.24,1.08-18.49-7.09-16.66-19.75-1.52-12.19-.89-22,16-20.37,13.35,1.28,26.36,2,28,19C524.59,498.86,514.58,505,495.84,506.23Z" transform="translate(-158.65 -296.99)"/><path class="cls-1" d="M896.2,491.86C881.38,473.72,859,468.7,837.84,479.8c-6.11,3.2-10,3.28-16.25.06-15.25-7.79-24.57-2-25.06,15.23-.6,20.56-.14,41.15-.16,61.73,0,21.79-.26,43.58.09,65.37.15,9.65,2.67,18.43,15,18.62C822.39,641,826,633.9,827,624.52c.62-6,1.58-12.07,1.24-18-.71-12.59.62-19.16,16.45-13.08,17.83,6.85,34.55,1.54,48-12.51C914.05,558.48,915.74,515.78,896.2,491.86Zm-43,75.16c-14.48.65-25.19-12.53-25.44-31.31-.27-19,9.49-31.87,24.33-32,15.23-.14,25.33,11.91,25.85,30.83C878.43,552.11,867.56,566.38,853.21,567Z" transform="translate(-158.65 -296.99)"/><path class="cls-1" d="M615.35,546.05c7.24-.5,14.54-.13,21.82-.13v-.25c9.7,0,19.41.26,29.1-.06,10.48-.35,14.77-6.16,14.58-16.6-.59-34-37.1-62.12-70-53.49-24.28,6.38-38.33,23.16-43,46.85-4.76,24.08.37,46.56,21.07,61.94,22.09,16.4,46.5,15.76,70.63,4.36,9.81-4.63,22-11.1,16.16-24.18-6.11-13.63-17.68-4.25-26.93-1.59-4.64,1.33-9,3.77-13.63,5a28,28,0,0,1-24.24-4.35c-4.46-3.16-10.1-6.63-9.11-12.57C603.1,543.26,610.46,546.39,615.35,546.05Zm-14.18-28.8c-.08-10.87,10.87-16.37,22.32-16.28,12,.09,24.28,5.18,22.91,17.24-1.46,12.91-15.94,3.69-24.17,7.42C615.26,521.7,601.26,531.33,601.17,517.25Z" transform="translate(-158.65 -296.99)"/><path class="cls-1" d="M1109.51,473.67c-31.69-.3-57.32,26.38-57.85,60.22-.57,36,23.35,62,57,62.07,32.86,0,56.37-25.05,56.56-60.35C1165.37,500.86,1141.19,474,1109.51,473.67Zm-1.4,93.69c-15.15-.49-23.83-12.27-23.94-32.48-.1-19.87,8.95-31.55,24.49-31.59,14.92,0,26.68,14.77,26.26,33C1134.53,553.06,1121.79,567.81,1108.11,567.36Z" transform="translate(-158.65 -296.99)"/></svg>