<?xml version="1.0" encoding="utf-8"?>
<!-- Generator: Adobe Illustrator 25.4.1, SVG Export Plug-In . SVG Version: 6.00 Build 0)  -->
<svg version="1.1" id="Capa_1" xmlns="http://www.w3.org/2000/svg" xmlns:xlink="http://www.w3.org/1999/xlink" x="0px" y="0px"
	 viewBox="0 0 1824.1 447.4" style="enable-background:new 0 0 1824.1 447.4;" xml:space="preserve">
<style type="text/css">
	.st0{fill:#8D8E8E;}
</style>
<g>
	<rect x="276.5" y="82.3" class="st0" width="36.5" height="190.5"/>
	<path class="st0" d="M421.7,77.9c-21,0-45,5.5-72.2,19.2l13.3,26.9c16.6-8.5,35-15.8,53.8-15.8c38,0,49,25.4,49,49.4v5.9
		c-18.4-6.3-38.7-10.3-57.5-10.3c-42,0-76.3,25.4-76.3,63.4c0,37.2,29.9,60.8,70.4,60.8c23.2,0,49.4-10.7,63.4-30.6v26.2h35.7V157.5
		C501.3,110.3,472.9,77.9,421.7,77.9 M465.5,213.1c-6.3,23.6-32.8,35.4-56.4,35.4c-24,0-42.4-12.5-42.4-33.2s21.4-35,46.8-35
		c17.6-0.2,35.1,2.3,52,7.3L465.5,213.1z"/>
	<path class="st0" d="M674.8,82.3v30.6c-14.4-21.4-38.7-35-67.4-35c-50.1,0-86.6,37.2-86.6,90.3s36.5,90.6,86.6,90.6
		c28.7,0,52.3-12.9,67.4-34.6v27.6c0,33.2-24.7,52.7-65.6,52.7c-22.8,0-45.7-7.7-59.7-21l-14.4,27.3c18,14.7,47.5,25.4,79.6,25.4
		c56.4,0,96.5-34.6,96.5-83.6V82.3H674.8z M616.6,227.1c-33.9,0-57.8-24.3-57.8-59c0-34.3,24-58.6,57.8-58.6s58.2,24.3,58.2,58.6
		C674.8,202.7,650.5,227.1,616.6,227.1"/>
	<path class="st0" d="M910.3,151.6v121.2h-35.8v-115c0-28.4-18.1-48.2-43.8-48.2c-26.5,0-49.4,17.3-52.3,39.8v123.5h-36.5V82.3h36.5
		v27.6c11.4-18.8,34.6-32,60.4-32C880.8,77.9,910.3,108.5,910.3,151.6"/>
	<path class="st0" d="M1028.9,77.9c-54.5,0-100.6,45.3-100.6,99.5s46,99.9,100.6,99.9c54.2,0,99.8-45.7,99.8-99.9
		S1083.1,77.9,1028.9,77.9 M1028.9,245.5c-35,0-64.1-31-64.1-68.2c0-36.9,29.1-67.8,64.1-67.8c34.3,0,63.4,31,63.4,67.8
		C1092.3,214.6,1063.2,245.5,1028.9,245.5"/>
	<path class="st0" d="M1135,248.9l17.3-26.2c20.3,14.7,42,23.2,64.5,23.2c21.4,0,36.1-10,36.1-24.7c0-17.7-19.5-23.2-43.1-29.8
		c-43.8-12.2-65.6-24.7-65.6-55.6c-0.4-35,28.8-57.9,69.3-57.9c24.7,0,49.8,8.5,70.4,22.1l-16.2,26.9
		c-18.4-11.4-37.6-17.7-54.2-17.7c-18.8,0-33.5,8.1-33.5,22.5c0,14.7,11.8,19.1,43.8,29.1c31.3,9.2,64.8,19.5,64.8,57.5
		c0,36.1-30.6,59-72.2,59C1188.4,277.2,1157.8,267.2,1135,248.9"/>
	<path class="st0" d="M1409.5,263.6c-10.8,8.7-24.2,13.5-38,13.6c-29.5,0-50.1-21.4-50.1-52v-112h-28.7v-31h28.7V30h35.7v52.3h44.9
		v30.9h-44.9v109.4c0,13.3,8.8,22.8,19.5,22.8c8.1,0,15.5-3,19.5-7L1409.5,263.6z"/>
	<rect x="1422.4" y="82.3" class="st0" width="36.5" height="190.5"/>
	<path class="st0" d="M1477.3,177.4c0-54.2,46-99.5,100.6-99.5c27.3,0,51.9,11.4,70,29.5l-24.7,22.8c-11.6-13.1-28.2-20.6-45.7-20.6
		c-34.6,0-63.4,30.9-63.4,67.8c0,37.2,28.8,68.2,63.8,68.2c17.7,0,34.6-8.1,46.4-21.4l24.7,22.5c-18.4,18.8-43.1,30.6-71.5,30.6
		C1523.4,277.2,1477.3,231.6,1477.3,177.4"/>
	<path class="st0" d="M1744.1,77.9c-21,0-45,5.5-72.2,19.2l13.3,26.9c16.6-8.5,35-15.8,53.8-15.8c37.9,0,49,25.4,49,49.4v5.9
		c-18.4-6.3-38.7-10.3-57.5-10.3c-42,0-76.3,25.4-76.3,63.4c0,37.2,29.8,60.8,70.4,60.8c23.2,0,49.4-10.7,63.4-30.6v26.2h35.7V157.5
		C1823.7,110.3,1795.3,77.9,1744.1,77.9 M1787.9,213.1c-6.3,23.6-32.8,35.4-56.4,35.4c-24,0-42.4-12.5-42.4-33.2s21.4-35,46.8-35
		c17.6-0.1,35.1,2.3,52,7.4L1787.9,213.1z"/>
	<path class="st0" d="M41.2,0C18.4,0,0,18.4,0,41.1c0,22.7,18.4,41.2,41.1,41.2s41.2-18.4,41.2-41.1c0,0,0,0,0,0
		C82.3,18.4,63.9,0,41.2,0"/>
	<path class="st0" d="M112.9,19.7h-27c5.4,10.4,6.7,22.6,3.6,33.9h25.6c58.6,0,99.5,38.3,99.5,92.5c0,54.5-40.9,92.9-99.5,92.9H62.8
		V85.8c-11.5,6.1-25,7-37.2,2.6v184.3h87.3c81.8,0,140-52.7,140-126.8S194.7,19.7,112.9,19.7"/>
	<path class="st0" d="M976.8,436.8l3-3.7c6.1,6.1,14.4,9.5,23,9.5c10.6,0,17.4-5.7,17.4-13.2c0-7.2-5.8-11-19-14.2
		c-14.7-3.3-21.4-7.8-21.4-17c0-10.8,8.8-18.7,21.2-18.7c8.5,0.1,16.6,3.4,22.7,9.3l-2.8,3.7c-5.4-5.3-12.6-8.3-20.1-8.5
		c-9.4,0-16.2,5.9-16.2,13.7c0,6.5,5.9,9.8,19,13c14.4,3.4,21.4,8.3,21.4,18.3c0,10.4-8.7,18.2-22.4,18.2
		C993,447.4,983.7,443.7,976.8,436.8"/>
	<path class="st0" d="M1083.4,416.2v30h-4.7v-7.9c-3.7,5.9-11.8,9-18.8,9c-10.3,0-17.8-6.3-17.8-15.8s8.2-16.3,19.6-16.3
		c5.8,0.2,11.5,1.2,16.9,3.2v-2.3c0-7.7-3.7-16.1-15-16.1c-5,0-10.3,1.8-14.8,4.4l-1.9-3.9c5.3-3,11.2-4.6,17.2-4.8
		C1076.5,395.8,1083.5,404.2,1083.4,416.2 M1078.8,430.7v-8.3c-5.2-1.8-10.7-2.9-16.3-3c-9.1,0-15.7,5-15.7,11.9s6.1,11.5,13.9,11.5
		C1067.8,442.9,1076.9,438.9,1078.8,430.7"/>
	<rect x="1105.3" y="379.6" class="st0" width="4.7" height="66.6"/>
	<path class="st0" d="M1171,397v49.2h-4.7v-8.5c-2.6,5.8-8.8,9.6-16.2,9.6c-10.8,0-18.4-7.6-18.4-18.4v-32h4.7v31.3
		c0,8.6,5.9,14.7,14.4,14.7c8.9,0,15.5-6.3,15.5-14.6V397H1171z"/>
	<path class="st0" d="M1236.7,379.7v66.5h-4.7v-10c-3.7,7-11.1,11.3-19,11.1c-12.3,0-22.3-11.4-22.3-25.8s10-25.7,22.3-25.7
		c7.9-0.2,15.2,4.1,19,11v-27.2H1236.7z M1232.1,421.6c0-12.5-7.5-21.3-18-21.3c-10.2,0-18.4,9.5-18.4,21.3s8.2,21.4,18.4,21.4
		C1224.5,443,1232.1,434.1,1232.1,421.6"/>
	<path class="st0" d="M1291.9,413.4c0-18.4,15.3-33.8,33.5-33.8c8.9,0,17.3,3.6,23.5,10l-3.3,3.3c-5.3-5.5-12.5-8.7-20.2-8.8
		c-15.6,0-28.8,13.4-28.8,29.2s13.2,29.3,28.8,29.3c7.6,0,14.9-3.2,20.2-8.8l3.3,3.3c-6.2,6.3-14.7,9.9-23.5,10
		C1307.2,447.3,1291.9,431.8,1291.9,413.4"/>
	<path class="st0" d="M1363.5,421.5c0.1-14.1,11.5-25.5,25.5-25.7c13.8,0,25.4,11.7,25.4,25.7s-11.6,25.8-25.4,25.8
		S1363.5,435.5,1363.5,421.5 M1409.7,421.5c0-11.5-9.5-21.3-20.7-21.3s-20.8,9.8-20.8,21.3s9.5,21.4,20.8,21.4
		S1409.7,433.1,1409.7,421.5"/>
	<path class="st0" d="M1473,414.2v32h-4.7v-31.3c0-8.6-5.9-14.7-14.4-14.7c-8.9,0-15.5,6.3-15.5,14.6v31.4h-4.7V397h4.7v8.5
		c2.6-5.8,8.8-9.6,16.2-9.6C1465.4,395.8,1473,403.4,1473,414.2"/>
	<path class="st0" d="M1533.8,436.5l3,3.2c-4.2,4.6-12.8,7.6-20.3,7.6c-13.1,0-24.5-11.4-24.5-25.9s10.8-25.6,24.2-25.6
		c14.4,0,23.4,11,23.4,27.7h-42.9c1,10.9,9.2,19.4,19.6,19.4C1523.1,442.9,1530,440.6,1533.8,436.5 M1496.8,419.1h38.3
		c-0.7-11.1-7.6-18.9-18.7-18.9C1506,400.2,1497.9,408.2,1496.8,419.1"/>
	<path class="st0" d="M1556.1,421.5c0-14.7,10.7-25.7,24.8-25.7c6.4,0,12.6,2.6,17.1,7.2l-3.3,3.2c-3.6-3.8-8.6-6-13.8-6.1
		c-11.5,0-20.1,9.1-20.1,21.3s8.6,21.4,20.1,21.4c5.3-0.1,10.4-2.3,14-6.2l3.2,3.2c-4.5,4.7-10.7,7.3-17.2,7.3
		C1566.7,447.3,1556.1,436.3,1556.1,421.5"/>
	<path class="st0" d="M1640.9,444.2c-2.6,2-5.8,3.1-9.1,3.1c-6.3,0-10.7-5.2-10.7-12.6v-33.4h-8.4v-4.4h8.4v-13.5h4.7V397h12.7v4.4
		h-12.7v33.4c0,4.8,2.7,8.2,6.3,8.2c2.4,0,4.7-0.9,6.5-2.4L1640.9,444.2z"/>
	<path class="st0" d="M1697.1,416.2v30h-4.7v-7.9c-3.7,5.9-11.8,9-18.8,9c-10.3,0-17.8-6.3-17.8-15.8s8.2-16.3,19.6-16.3
		c5.8,0.2,11.5,1.2,17,3.2v-2.3c0-7.7-3.7-16.1-15-16.1c-5,0-10.3,1.8-14.9,4.4l-1.9-3.9c5.3-3,11.2-4.6,17.2-4.8
		C1690.2,395.8,1697.2,404.2,1697.1,416.2 M1692.5,430.7v-8.3c-5.2-1.8-10.7-2.9-16.3-3c-9.1,0-15.7,5-15.7,11.9s6.1,11.5,13.9,11.5
		C1681.6,442.9,1690.6,438.9,1692.5,430.7"/>
	<path class="st0" d="M1762.8,379.7v66.5h-4.7v-10c-3.7,7-11.1,11.3-19,11.1c-12.3,0-22.3-11.4-22.3-25.8s10-25.7,22.3-25.7
		c7.9-0.2,15.2,4.1,19,11v-27.2H1762.8z M1758.1,421.6c0-12.5-7.5-21.3-18-21.3c-10.2,0-18.4,9.5-18.4,21.3s8.2,21.4,18.4,21.4
		C1750.6,443,1758.1,434.1,1758.1,421.6"/>
	<path class="st0" d="M1824,416.2v30h-4.7v-7.9c-3.7,5.9-11.8,9-18.8,9c-10.3,0-17.8-6.3-17.8-15.8s8.2-16.3,19.6-16.3
		c5.8,0.2,11.5,1.2,16.9,3.2v-2.3c0-7.7-3.7-16.1-15-16.1c-4.9,0-10.3,1.8-14.8,4.4l-1.9-3.9c5.3-3,11.2-4.6,17.2-4.8
		C1817.1,395.8,1824.1,404.2,1824,416.2 M1819.4,430.7v-8.3c-5.2-1.8-10.7-2.9-16.3-3c-9.1,0-15.7,5-15.7,11.9s6.1,11.5,13.9,11.5
		C1808.5,442.9,1817.5,438.9,1819.4,430.7"/>
</g>
</svg>
